<svg id="Layer_1" data-name="Layer 1" xmlns="http://www.w3.org/2000/svg" viewBox="0 0 199 118.635"><defs><style>.cls-1{fill:#feda05;}</style></defs><title>Kwabyna</title><path d="M51.809,44.373a7.465,7.465,0,0,1,1.61-.041,3.647,3.647,0,0,1,1.061.225q.351.157.287.322c-.043.108-.267.188-.672.234a12.518,12.518,0,0,0-3.173.79,18.886,18.886,0,0,0-2.884,1.449,30.094,30.094,0,0,0-2.747,1.905Q43.945,50.3,42.584,51.4q-1.266,1.024-2.574,2.031t-2.677,1.9a29.427,29.427,0,0,1-2.822,1.621,17.359,17.359,0,0,1-2.972,1.168,5.658,5.658,0,0,1,2.25,1.236,6.272,6.272,0,0,1,1.374,1.859,9.111,9.111,0,0,1,.73,2.241q.231,1.2.386,2.322.139.93.3,1.764a6.742,6.742,0,0,0,.453,1.485,2.672,2.672,0,0,0,.79,1.041,2.149,2.149,0,0,0,1.319.41,3.663,3.663,0,0,0,1.255-.2,7.23,7.23,0,0,0,1.209-.543,10.389,10.389,0,0,0,1.091-.707c.346-.257.644-.49.9-.7s.48-.387.681-.525a.98.98,0,0,1,.548-.2.356.356,0,0,1,.377.325,1.44,1.44,0,0,1-.12.81,4.253,4.253,0,0,1-.61,1.04,5.481,5.481,0,0,1-1.062,1.028,5.6,5.6,0,0,1-1.489.781,5.115,5.115,0,0,1-1.868.275,9.8,9.8,0,0,1-3.857-.74,5.7,5.7,0,0,1-2.153-1.661,6.175,6.175,0,0,1-1.076-2.221,22.272,22.272,0,0,1-.5-2.438q-.164-1.024-.4-2.033a6.013,6.013,0,0,0-.748-1.809,4.054,4.054,0,0,0-1.376-1.32,5.008,5.008,0,0,0-2.257-.6q-1.8,2.311-3.665,4.518a43.472,43.472,0,0,1-3.708,3.9,20.446,20.446,0,0,1-3.584,2.693,6.25,6.25,0,0,1-3.286.954,5.455,5.455,0,0,1-2.012-.384,3.2,3.2,0,0,1-1.254-.924,2.923,2.923,0,0,1-.591-1.323,4.957,4.957,0,0,1-.009-1.592,7.581,7.581,0,0,1,.508-1.8,11.155,11.155,0,0,1,.959-1.82,12.576,12.576,0,0,1,1.334-1.7,10.436,10.436,0,0,1,1.64-1.44,9.355,9.355,0,0,1,1.863-1.027,6.221,6.221,0,0,1,2.04-.464,2.956,2.956,0,0,1,1.119.141,2.27,2.27,0,0,1,.864.509,2.054,2.054,0,0,1,.516.823,2.438,2.438,0,0,1,.1,1.079,3.423,3.423,0,0,1-.651,1.676,6.092,6.092,0,0,1-1.29,1.29,7.723,7.723,0,0,1-1.574.9,12.05,12.05,0,0,1-1.51.539,4.862,4.862,0,0,1-1.114.2c-.29.008-.429-.031-.418-.118a.464.464,0,0,1,.217-.293A6.063,6.063,0,0,1,14.77,65c.292-.166.641-.379,1.053-.637a7.734,7.734,0,0,0,1.208-.946A6.478,6.478,0,0,0,18.085,62.1a4.246,4.246,0,0,0,.578-1.73.574.574,0,0,0-.188-.519.9.9,0,0,0-.662-.181,3.021,3.021,0,0,0-1.334.42,6.816,6.816,0,0,0-1.34,1.014,11.591,11.591,0,0,0-1.261,1.433,15.464,15.464,0,0,0-1.09,1.658,12.119,12.119,0,0,0-.81,1.709,7.548,7.548,0,0,0-.428,1.6,2.684,2.684,0,0,0,.2,1.635,1.392,1.392,0,0,0,1.329.665,3.461,3.461,0,0,0,1.646-.455,10.719,10.719,0,0,0,1.916-1.32,25.149,25.149,0,0,0,2.1-2.013q1.093-1.166,2.235-2.514t2.313-2.837q1.167-1.49,2.331-2.986.92-1.177,1.98-2.533t2.134-2.647q1.076-1.291,2.093-2.424a25.338,25.338,0,0,1,1.829-1.864,27.893,27.893,0,0,0-3.725.839,20.434,20.434,0,0,0-2.581.971,12.2,12.2,0,0,0-1.677.934,11.653,11.653,0,0,0-.99.748,3.45,3.45,0,0,1-.331.24.732.732,0,0,1-.251.122c-.182.017-.246-.084-.194-.3a2.471,2.471,0,0,1,.507-.858,9.8,9.8,0,0,1,1.176-1.179,11.078,11.078,0,0,1,1.815-1.26,15.243,15.243,0,0,1,2.467-1.1,14.9,14.9,0,0,1,3.125-.7c.453-.055.939-.1,1.461-.122s1.045-.035,1.558-.021a4.37,4.37,0,0,1,1.46-.46,1.734,1.734,0,0,1,.772.067,1.152,1.152,0,0,1,.5.292.333.333,0,0,1,.086.345q-.063.169-.465.216a3.114,3.114,0,0,0-1.516.862,21.394,21.394,0,0,0-1.991,2.033q-1.089,1.246-2.311,2.822t-2.476,3.208c-.2.26-.368.468-.488.625s-.282.371-.487.641a12.821,12.821,0,0,0,2.52-.938,23.33,23.33,0,0,0,2.444-1.407q1.22-.8,2.42-1.727t2.428-1.891q1.485-1.151,2.972-2.274a33.864,33.864,0,0,1,3.065-2.061,22.358,22.358,0,0,1,3.272-1.6A14.543,14.543,0,0,1,51.809,44.373Z"/><path d="M55.483,60.983a2.244,2.244,0,0,0,.977-.253,6.667,6.667,0,0,0,.844-.51,4.34,4.34,0,0,0,.76-.755c.046-.081.151-.124.314-.131l1.161-.047a.368.368,0,0,1,.3.1.181.181,0,0,1,.022.224,6.258,6.258,0,0,1-1.19,1.276,6.082,6.082,0,0,1-1.536.888A5.869,5.869,0,0,1,55,62.2a5.686,5.686,0,0,1-1.25-.121,3.909,3.909,0,0,1-1.231-.465q-.8.829-1.648,1.554a17.529,17.529,0,0,1-1.661,1.266,10.324,10.324,0,0,1-1.54.86,3.37,3.37,0,0,1-1.318.321,2.8,2.8,0,0,1-1.694-.486,3,3,0,0,1-1-1.133,9.495,9.495,0,0,1-1.714,1.2,3.688,3.688,0,0,1-1.718.471,2.831,2.831,0,0,1-1.182-.221,2.591,2.591,0,0,1-.856-.6,2.3,2.3,0,0,1-.5-.849A2.6,2.6,0,0,1,37.564,63a3.578,3.578,0,0,1,.423-1.289A17.431,17.431,0,0,1,38.968,60q.583-.91,1.268-1.827t1.308-1.665c.416-.5.774-.907,1.077-1.228s.5-.483.6-.489a2.159,2.159,0,0,1,.423.012,1.019,1.019,0,0,1,.405.14.765.765,0,0,1,.3.36,1.617,1.617,0,0,1,.093.692,3.923,3.923,0,0,1-.666,1.626q-.646,1.069-1.432,2.287c-.274.412-.544.822-.816,1.226s-.512.792-.724,1.16a10.546,10.546,0,0,0-.512,1,2.277,2.277,0,0,0-.211.757c-.01.2.092.3.3.3a1.706,1.706,0,0,0,.95-.565,17.115,17.115,0,0,0,1.3-1.381q.7-.819,1.427-1.753c.482-.623.9-1.179,1.264-1.675V59q.575-.855,1.206-1.679t1.206-1.477c.378-.434.712-.787,1-1.057s.479-.411.583-.418a2.574,2.574,0,0,1,.454.011,1.132,1.132,0,0,1,.438.144.835.835,0,0,1,.325.371,1.65,1.65,0,0,1,.116.715,3.9,3.9,0,0,1-.679,1.682Q49.3,58.4,48.454,59.662c-.283.427-.559.851-.832,1.269s-.515.819-.733,1.2a10.3,10.3,0,0,0-.527,1.037,2.267,2.267,0,0,0-.21.783c-.006.212.1.315.334.312a1.576,1.576,0,0,0,.715-.376,13.6,13.6,0,0,0,1.164-1q.664-.631,1.466-1.438t1.658-1.7l0-.113a5,5,0,0,1,.513-2.154,6.892,6.892,0,0,1,1.256-1.8,6.368,6.368,0,0,1,1.72-1.269,5.017,5.017,0,0,1,1.944-.559c.385-.027.586.125.6.456a3.03,3.03,0,0,1-.384,1.331,14.274,14.274,0,0,1-1.168,1.915A26.331,26.331,0,0,1,54.2,59.777a1.753,1.753,0,0,0,.352.854A1.045,1.045,0,0,0,55.483,60.983Z"/><path d="M75.578,58.649a.418.418,0,0,1,.321.1.186.186,0,0,1,.036.243,22.726,22.726,0,0,1-2.825,3.23q-.664.609-1.4,1.191a11.008,11.008,0,0,1-1.566,1.029,9.326,9.326,0,0,1-1.7.727,5.984,5.984,0,0,1-1.772.284,4.193,4.193,0,0,1-2.166-.488,3.3,3.3,0,0,1-1.278-1.281,9,9,0,0,1-1.7,1.274,3.9,3.9,0,0,1-1.978.548,3.834,3.834,0,0,1-2.5-.706,2.666,2.666,0,0,1-.88-2.19,5.162,5.162,0,0,1,.426-1.98,10.305,10.305,0,0,1,1.148-2.045,14.5,14.5,0,0,1,1.671-1.944,15.785,15.785,0,0,1,1.991-1.66A11.517,11.517,0,0,1,63.521,53.8a6.421,6.421,0,0,1,2.042-.526,5.553,5.553,0,0,1,1.631.092,3.6,3.6,0,0,1,1.137.46,5.96,5.96,0,0,1,.684-.584A1.137,1.137,0,0,1,69.486,53a3.437,3.437,0,0,1,.562.011,1.642,1.642,0,0,1,.554.155,1.2,1.2,0,0,1,.452.405,1.516,1.516,0,0,1,.216.766,1.858,1.858,0,0,1-.217.8c-.153.337-.344.711-.574,1.125s-.488.848-.78,1.307-.584.9-.877,1.324c-.32.458-.63.922-.934,1.388s-.57.905-.8,1.319a11.2,11.2,0,0,0-.554,1.139,2.166,2.166,0,0,0-.2.846c.009.235.141.35.4.346a3.466,3.466,0,0,0,1.1-.22,6.627,6.627,0,0,0,1.194-.567,12.215,12.215,0,0,0,1.194-.814q.6-.46,1.136-.933a23.412,23.412,0,0,0,2.5-2.552c.049-.087.167-.134.36-.141ZM60.033,63.863a1.477,1.477,0,0,0,.809-.491,14.345,14.345,0,0,0,1.092-1.159q.572-.672,1.109-1.371t.825-1.1l0,.024a23.431,23.431,0,0,1,1.66-2.538q.953-1.276,1.788-2.262a1.007,1.007,0,0,0-.614-.179,3.775,3.775,0,0,0-1.649.48,8.913,8.913,0,0,0-1.679,1.174,13.675,13.675,0,0,0-1.561,1.62,14.769,14.769,0,0,0-1.282,1.8,11.359,11.359,0,0,0-.869,1.739,3.908,3.908,0,0,0-.32,1.442C59.347,63.6,59.578,63.87,60.033,63.863Z"/><path d="M94.668,57.889a.629.629,0,0,1,.437.109.192.192,0,0,1,.06.264,6.24,6.24,0,0,1-1.9,1.835,11.9,11.9,0,0,1-2.8,1.3,14.883,14.883,0,0,1-4.356.643l-.414.01a.306.306,0,0,1-.119-.011.3.3,0,0,0-.116-.012,14.845,14.845,0,0,1-3.582,2.4,9.394,9.394,0,0,1-4.006.948,7.633,7.633,0,0,1-2.656-.378,4.934,4.934,0,0,1-1.668-.956,3.712,3.712,0,0,1-1.2-2.436,4.047,4.047,0,0,1,.52-1.956,20.8,20.8,0,0,1,1.449-2.44q.881-1.3,1.99-2.673t2.148-2.643c.486-.616.955-1.2,1.405-1.752s.831-1.024,1.139-1.424.538-.712.691-.94.185-.338.1-.33a.314.314,0,0,1-.31-.12.337.337,0,0,1-.031-.331.809.809,0,0,1,.312-.362,1.49,1.49,0,0,1,.714-.215,3.692,3.692,0,0,1,.759.014,2.879,2.879,0,0,1,.782.2,1.928,1.928,0,0,1,.638.429,1.165,1.165,0,0,1,.315.725,3.56,3.56,0,0,1-.546,1.9q-.618,1.169-1.546,2.562a6.735,6.735,0,0,1,1.437-.253,7.924,7.924,0,0,1,2.151.113,5.291,5.291,0,0,1,1.622.587,3.128,3.128,0,0,1,1.032.926,2.486,2.486,0,0,1,.434,1.125,5.287,5.287,0,0,1-.57,2.74,12.885,12.885,0,0,1-1.955,3,10.939,10.939,0,0,0,2.706-.51,8.141,8.141,0,0,0,1.713-.789,4.128,4.128,0,0,0,1.19-1.043c.052-.112.174-.171.369-.18ZM79.361,57.07l-.779-.092c-.019.121-.031.242-.038.363a3.425,3.425,0,0,0,.009.387l.031.412Zm5.6-3.39a2.188,2.188,0,0,0-1.19.423,3.824,3.824,0,0,0-.911.961,4.053,4.053,0,0,0-.569,1.3,4.1,4.1,0,0,0-.121,1.394,4.227,4.227,0,0,0,.189.918,2.171,2.171,0,0,0,.5.831c.4-.494.779-1,1.121-1.507a12.563,12.563,0,0,0,.856-1.457,9.759,9.759,0,0,0,.532-1.283,2.477,2.477,0,0,0,.15-1.006C85.478,53.849,85.291,53.66,84.961,53.68Zm-8.194,10.1a4.353,4.353,0,0,0,2.17-.7,12.891,12.891,0,0,0,2.331-1.842,5.67,5.67,0,0,1-1.756-1.4,4.623,4.623,0,0,1-.928-1.688q-1.158,1.629-1.937,2.968a4.129,4.129,0,0,0-.728,2.077C75.946,63.589,76.226,63.787,76.767,63.779Z"/><path d="M111.33,50.1a5.525,5.525,0,0,1,.769,0,2.973,2.973,0,0,1,.834.175,1.993,1.993,0,0,1,.73.478,1.834,1.834,0,0,1,.445.943,3.97,3.97,0,0,1-.526,1.629,34.422,34.422,0,0,1-1.723,3.14q-1.119,1.86-2.717,4.109t-3.471,4.549q-1.881,2.3-3.98,4.438a37.8,37.8,0,0,1-4.257,3.748,21.8,21.8,0,0,1-4.27,2.536,9.083,9.083,0,0,1-4.041.835A9.193,9.193,0,0,1,85.73,76a5.436,5.436,0,0,1-1.841-1.245,1.784,1.784,0,0,1-.546-1.179c.018-.346.211-.515.585-.5a1.386,1.386,0,0,1,.913.258,6.754,6.754,0,0,1,.523.539,3.147,3.147,0,0,0,.528.56,2.26,2.26,0,0,0,1.277.295,5.689,5.689,0,0,0,2.87-.8,19.428,19.428,0,0,0,3.267-2.288,36.9,36.9,0,0,0,3.441-3.372q1.743-1.932,3.394-4.05a10.177,10.177,0,0,1-1.838.728,6.735,6.735,0,0,1-1.825.28,6.89,6.89,0,0,1-2.121-.288,5.988,5.988,0,0,1-1.642-.789,3.867,3.867,0,0,1-1.091-1.111,3.017,3.017,0,0,1-.467-1.287,3.347,3.347,0,0,1,.41-1.69,18.257,18.257,0,0,1,1.268-2.241c.525-.8,1.1-1.595,1.739-2.4s1.244-1.534,1.824-2.192a21.939,21.939,0,0,1,1.56-1.622,2.589,2.589,0,0,1,.894-.651,5.984,5.984,0,0,1,.768,0,2.6,2.6,0,0,1,.772.168,1.5,1.5,0,0,1,.612.459,1.883,1.883,0,0,1,.346.9,3.679,3.679,0,0,1-.749,2.138q-.856,1.412-1.966,3.021c-.372.547-.73,1.086-1.086,1.619s-.665,1.045-.941,1.53a9.494,9.494,0,0,0-.637,1.321,2.082,2.082,0,0,0-.177,1c.034.27.239.4.612.4a3.43,3.43,0,0,0,1.271-.31,9.873,9.873,0,0,0,1.47-.8,17.262,17.262,0,0,0,1.568-1.145c.538-.432,1.055-.87,1.557-1.312q1.792-1.578,3.7-3.612l0,.03c.147-.222.286-.432.416-.632s.272-.4.42-.6l.006.029q1.605-2.233,2.752-3.622T111.33,50.1Z"/><path d="M149.826,55.7a1.257,1.257,0,0,1,.7.128c.164.1.206.207.139.326a26.124,26.124,0,0,1-4.264,4.39q-1.041.829-2.232,1.62a17.432,17.432,0,0,1-5.5,2.386,13.772,13.772,0,0,1-3.165.387,10.925,10.925,0,0,1-2.9-.333,9.834,9.834,0,0,1-2.3-.917,5.768,5.768,0,0,1-1.618-1.3,3.646,3.646,0,0,1-.775-1.479A2.421,2.421,0,0,1,128,59.74a8.789,8.789,0,0,1,.6-1.509q.4-.806.946-1.7c.363-.594.748-1.168,1.145-1.721q-1.656,1.391-3.146,2.859T124.7,60.492q-.888.921-1.757,1.745c-.58.547-1.109,1.03-1.587,1.443a10.586,10.586,0,0,1-1.325,1,2.144,2.144,0,0,1-1.041.378,5.734,5.734,0,0,1-1.935-.319,7.252,7.252,0,0,1-1.739-.868A5.528,5.528,0,0,1,114,62.637a3.422,3.422,0,0,1-.645-1.4,3.312,3.312,0,0,1,.384-1.853,17.275,17.275,0,0,1,1.387-2.446c.582-.866,1.229-1.743,1.944-2.639s1.405-1.7,2.059-2.411a24.436,24.436,0,0,1,1.785-1.772,2.887,2.887,0,0,1,1.043-.719,7.736,7.736,0,0,1,.929,0,3.464,3.464,0,0,1,.949.178,1.957,1.957,0,0,1,.778.5,2.009,2.009,0,0,1,.472.953,2.108,2.108,0,0,1-.113,1.15,7.286,7.286,0,0,1-.691,1.419c-.307.506-.652,1.034-1.031,1.594s-.777,1.127-1.192,1.706c-.552.734-1.061,1.45-1.532,2.158A11.58,11.58,0,0,0,119.454,61q.86-.907,2.088-2.159t2.736-2.622q1.506-1.371,3.159-2.73a40,40,0,0,1,3.341-2.472,22.69,22.69,0,0,1,3.328-1.839,9.256,9.256,0,0,1,3.082-.831,7.81,7.81,0,0,1,.945,0,4.19,4.19,0,0,1,1.04.186,2.336,2.336,0,0,1,.9.523,2.18,2.18,0,0,1,.569,1.006,1.8,1.8,0,0,1-.129,1.056,9.549,9.549,0,0,1-.721,1.5c-.322.555-.669,1.138-1.046,1.752s-.767,1.2-1.179,1.773c-.447.614-.881,1.234-1.3,1.86a18.147,18.147,0,0,0-1.069,1.782,8.412,8.412,0,0,0-.647,1.543,2.2,2.2,0,0,0-.1,1.129c.081.314.33.467.744.461a7.14,7.14,0,0,0,1.925-.319,12.858,12.858,0,0,0,2-.789,18.146,18.146,0,0,0,1.943-1.1q.956-.626,1.807-1.266a32.2,32.2,0,0,0,3.911-3.464c.068-.116.275-.182.623-.2Z"/><path d="M187.881,54.181a1.606,1.606,0,0,1,.812.145c.221.111.288.231.213.366a28.388,28.388,0,0,1-5.088,4.986c-.847.627-1.755,1.243-2.728,1.84a21.04,21.04,0,0,1-3.167,1.587,22.962,22.962,0,0,1-3.615,1.121,18.688,18.688,0,0,1-3.97.441,15.838,15.838,0,0,1-5.192-.719,10.116,10.116,0,0,1-3.478-1.907,15.218,15.218,0,0,1-3.246,1.918,10.381,10.381,0,0,1-4.175.83,13.537,13.537,0,0,1-5.822-1.03,4.985,4.985,0,0,1-2.85-3.2,4.823,4.823,0,0,1,.091-2.9,10.019,10.019,0,0,1,1.627-3,17.91,17.91,0,0,1,2.817-2.872,24.349,24.349,0,0,1,3.643-2.484A23.519,23.519,0,0,1,157.9,47.5a17.815,17.815,0,0,1,4.311-.865,19.644,19.644,0,0,1,3.7.047,13.587,13.587,0,0,1,2.789.616,9.261,9.261,0,0,1,1.282-.893,2.6,2.6,0,0,1,.962-.371,12.382,12.382,0,0,1,1.288-.016,6.163,6.163,0,0,1,1.338.2,3.845,3.845,0,0,1,1.232.574,2.461,2.461,0,0,1,.865,1.118,1.681,1.681,0,0,1-.117,1.19,16.218,16.218,0,0,1-.787,1.694c-.333.624-.724,1.282-1.179,1.975s-.918,1.36-1.393,2q-.774,1.038-1.489,2.1a21.115,21.115,0,0,0-1.212,1.992,10.28,10.28,0,0,0-.74,1.719,1.991,1.991,0,0,0-.065,1.274c.13.351.486.525,1.076.516a10.314,10.314,0,0,0,2.432-.346,15.148,15.148,0,0,0,2.5-.876,22.8,22.8,0,0,0,2.391-1.249c.776-.472,1.506-.949,2.2-1.436a31.522,31.522,0,0,0,4.612-3.925c.074-.133.335-.208.781-.226ZM154.6,62.34a2.868,2.868,0,0,0,1.582-.736A18,18,0,0,0,158.1,59.87c.656-.669,1.282-1.356,1.873-2.05s1.044-1.245,1.355-1.641l.011.033a24.229,24.229,0,0,1,2.579-3.794q1.569-1.914,3-3.4a3.693,3.693,0,0,0-1.464-.235,10.2,10.2,0,0,0-3.486.777,15.575,15.575,0,0,0-3.222,1.785,18.123,18.123,0,0,0-2.755,2.425,15.931,15.931,0,0,0-2.044,2.677,10.763,10.763,0,0,0-1.161,2.572,3.665,3.665,0,0,0-.083,2.126A1.716,1.716,0,0,0,154.6,62.34Z"/><path class="cls-1" d="M51.613,43.151a7.537,7.537,0,0,1,1.61-.042,3.642,3.642,0,0,1,1.061.226c.234.1.331.211.287.322s-.267.188-.671.234a12.473,12.473,0,0,0-3.174.79,18.925,18.925,0,0,0-2.884,1.448A30.233,30.233,0,0,0,45.1,48.034q-1.344,1.046-2.706,2.144-1.268,1.023-2.575,2.031T37.137,54.1a29.216,29.216,0,0,1-2.822,1.621,17.187,17.187,0,0,1-2.971,1.168,5.685,5.685,0,0,1,2.249,1.236,6.263,6.263,0,0,1,1.374,1.86,9.134,9.134,0,0,1,.731,2.24q.231,1.2.386,2.322.138.931.3,1.765a6.733,6.733,0,0,0,.453,1.484,2.665,2.665,0,0,0,.79,1.041,2.143,2.143,0,0,0,1.319.411,3.663,3.663,0,0,0,1.255-.2,7.238,7.238,0,0,0,1.209-.543A10.389,10.389,0,0,0,42.5,67.8c.347-.257.644-.49.9-.7s.481-.387.681-.525a.988.988,0,0,1,.548-.2.357.357,0,0,1,.378.324,1.449,1.449,0,0,1-.121.81,4.235,4.235,0,0,1-.61,1.04,5.486,5.486,0,0,1-1.062,1.029,5.624,5.624,0,0,1-1.489.781,5.092,5.092,0,0,1-1.867.274A9.806,9.806,0,0,1,36,69.886a5.709,5.709,0,0,1-2.153-1.661A6.207,6.207,0,0,1,32.772,66a22.1,22.1,0,0,1-.495-2.439q-.165-1.023-.405-2.032a5.975,5.975,0,0,0-.747-1.809,4.054,4.054,0,0,0-1.376-1.32,4.991,4.991,0,0,0-2.258-.6q-1.8,2.311-3.665,4.517a43.348,43.348,0,0,1-3.708,3.9,20.546,20.546,0,0,1-3.584,2.693,6.257,6.257,0,0,1-3.286.954,5.484,5.484,0,0,1-2.012-.384,3.205,3.205,0,0,1-1.254-.925,2.924,2.924,0,0,1-.591-1.323,4.95,4.95,0,0,1-.009-1.591,7.622,7.622,0,0,1,.508-1.8,11.146,11.146,0,0,1,.959-1.819,12.514,12.514,0,0,1,1.334-1.705,10.443,10.443,0,0,1,1.64-1.441,9.382,9.382,0,0,1,1.863-1.027,6.22,6.22,0,0,1,2.04-.463,2.936,2.936,0,0,1,1.119.14,2.3,2.3,0,0,1,.864.509,2.063,2.063,0,0,1,.517.824,2.448,2.448,0,0,1,.1,1.078,3.416,3.416,0,0,1-.651,1.676,6.1,6.1,0,0,1-1.29,1.291,7.743,7.743,0,0,1-1.574.9,12.05,12.05,0,0,1-1.51.539,4.974,4.974,0,0,1-1.114.2c-.29.008-.429-.031-.418-.118a.464.464,0,0,1,.218-.294,6.457,6.457,0,0,1,.585-.354c.292-.165.641-.379,1.053-.636a7.787,7.787,0,0,0,1.209-.946,6.474,6.474,0,0,0,1.053-1.316,4.236,4.236,0,0,0,.578-1.73.574.574,0,0,0-.188-.52.9.9,0,0,0-.662-.18,3.018,3.018,0,0,0-1.334.419,6.822,6.822,0,0,0-1.34,1.015,11.58,11.58,0,0,0-1.261,1.432,15.476,15.476,0,0,0-1.09,1.659,12.231,12.231,0,0,0-.81,1.709,7.548,7.548,0,0,0-.428,1.6,2.687,2.687,0,0,0,.2,1.635,1.39,1.39,0,0,0,1.329.664,3.436,3.436,0,0,0,1.646-.455,10.581,10.581,0,0,0,1.916-1.32,24.836,24.836,0,0,0,2.1-2.013q1.093-1.164,2.236-2.513T23.1,59.45q1.166-1.488,2.33-2.985.919-1.179,1.98-2.534t2.135-2.646q1.074-1.293,2.093-2.425A24.714,24.714,0,0,1,33.462,47a27.719,27.719,0,0,0-3.726.839,20.2,20.2,0,0,0-2.58.971,12.056,12.056,0,0,0-1.678.934,11.444,11.444,0,0,0-.99.748,3.326,3.326,0,0,1-.331.239.749.749,0,0,1-.25.123c-.183.017-.247-.084-.2-.3a2.454,2.454,0,0,1,.508-.859A9.858,9.858,0,0,1,25.4,48.508a11.076,11.076,0,0,1,1.815-1.259,15.156,15.156,0,0,1,2.467-1.1,14.771,14.771,0,0,1,3.125-.705c.453-.056.939-.1,1.461-.123s1.046-.035,1.558-.02a4.356,4.356,0,0,1,1.46-.461,1.734,1.734,0,0,1,.772.068,1.142,1.142,0,0,1,.5.292.332.332,0,0,1,.086.344c-.041.113-.2.185-.465.217a3.1,3.1,0,0,0-1.516.861,21.538,21.538,0,0,0-1.991,2.034Q33.58,49.9,32.358,51.477t-2.476,3.208c-.2.26-.368.468-.487.625s-.283.37-.488.64a12.7,12.7,0,0,0,2.521-.938,23.589,23.589,0,0,0,2.443-1.406q1.219-.8,2.42-1.727t2.428-1.891q1.485-1.152,2.972-2.274a33.668,33.668,0,0,1,3.065-2.062,22.5,22.5,0,0,1,3.272-1.6A14.543,14.543,0,0,1,51.613,43.151Z"/><path class="cls-1" d="M55.287,59.761a2.258,2.258,0,0,0,.977-.253,6.786,6.786,0,0,0,.844-.51,4.382,4.382,0,0,0,.76-.756c.046-.08.151-.124.314-.131l1.162-.047a.37.37,0,0,1,.3.1.181.181,0,0,1,.022.224,6.179,6.179,0,0,1-1.19,1.276,6.053,6.053,0,0,1-1.536.889,5.89,5.89,0,0,1-2.137.423,5.622,5.622,0,0,1-1.25-.12,3.943,3.943,0,0,1-1.231-.465q-.8.829-1.648,1.554a17.464,17.464,0,0,1-1.66,1.265,10.478,10.478,0,0,1-1.54.861,3.389,3.389,0,0,1-1.319.32,2.807,2.807,0,0,1-1.694-.485,3,3,0,0,1-1-1.133,9.481,9.481,0,0,1-1.713,1.194,3.665,3.665,0,0,1-1.719.471,2.819,2.819,0,0,1-1.182-.221,2.6,2.6,0,0,1-.856-.6,2.307,2.307,0,0,1-.505-.848,2.6,2.6,0,0,1-.127-.986,3.6,3.6,0,0,1,.423-1.289,17.878,17.878,0,0,1,.981-1.71q.584-.909,1.268-1.826t1.308-1.666c.416-.5.774-.907,1.078-1.228s.5-.482.6-.489a2.086,2.086,0,0,1,.423.013,1.018,1.018,0,0,1,.405.139.775.775,0,0,1,.3.36,1.6,1.6,0,0,1,.093.692,3.9,3.9,0,0,1-.666,1.626c-.43.714-.91,1.476-1.432,2.287-.274.413-.544.823-.816,1.227s-.512.791-.724,1.16a10.281,10.281,0,0,0-.511,1,2.288,2.288,0,0,0-.212.757c-.01.206.092.3.3.3a1.7,1.7,0,0,0,.95-.565,17.087,17.087,0,0,0,1.3-1.38q.7-.819,1.427-1.753t1.265-1.675v.021q.573-.855,1.205-1.678t1.206-1.478c.378-.434.712-.786,1-1.057s.48-.41.584-.417a2.387,2.387,0,0,1,.453.011,1.127,1.127,0,0,1,.438.144.83.83,0,0,1,.325.371,1.644,1.644,0,0,1,.116.715,3.907,3.907,0,0,1-.679,1.682q-.672,1.107-1.516,2.367-.425.642-.831,1.269t-.734,1.2a10.521,10.521,0,0,0-.527,1.037,2.245,2.245,0,0,0-.209.783c-.007.213.1.315.333.313a1.576,1.576,0,0,0,.715-.376,13.309,13.309,0,0,0,1.164-1q.665-.63,1.467-1.437c.535-.54,1.087-1.106,1.658-1.7l0-.113a4.993,4.993,0,0,1,.513-2.153,6.914,6.914,0,0,1,1.256-1.8,6.425,6.425,0,0,1,1.72-1.269,5.015,5.015,0,0,1,1.944-.558c.385-.027.586.124.6.455a3.027,3.027,0,0,1-.384,1.331,14.068,14.068,0,0,1-1.168,1.915A26.338,26.338,0,0,1,54,58.555a1.749,1.749,0,0,0,.352.853A1.043,1.043,0,0,0,55.287,59.761Z"/><path class="cls-1" d="M75.382,57.427a.412.412,0,0,1,.321.1.187.187,0,0,1,.037.243A22.8,22.8,0,0,1,72.914,61q-.664.609-1.4,1.191a11.231,11.231,0,0,1-1.565,1.029,9.365,9.365,0,0,1-1.7.727,6.016,6.016,0,0,1-1.772.284,4.2,4.2,0,0,1-2.166-.488,3.317,3.317,0,0,1-1.278-1.281,9.044,9.044,0,0,1-1.7,1.274,3.91,3.91,0,0,1-1.977.548,3.825,3.825,0,0,1-2.5-.707,2.661,2.661,0,0,1-.88-2.189A5.15,5.15,0,0,1,56.4,59.41a10.261,10.261,0,0,1,1.149-2.045,14.479,14.479,0,0,1,1.67-1.944,15.714,15.714,0,0,1,1.992-1.659,11.477,11.477,0,0,1,2.114-1.184,6.394,6.394,0,0,1,2.042-.526A5.589,5.589,0,0,1,67,52.143a3.639,3.639,0,0,1,1.138.46,5.857,5.857,0,0,1,.683-.583,1.137,1.137,0,0,1,.471-.238,3.549,3.549,0,0,1,.562.01,1.665,1.665,0,0,1,.554.155,1.2,1.2,0,0,1,.452.406,1.506,1.506,0,0,1,.216.766,1.865,1.865,0,0,1-.217.8c-.153.336-.343.71-.573,1.124s-.489.849-.781,1.308-.584.9-.877,1.323q-.478.688-.934,1.389t-.8,1.319a11.122,11.122,0,0,0-.555,1.139,2.144,2.144,0,0,0-.2.845c.009.236.14.351.4.347a3.494,3.494,0,0,0,1.1-.22,6.7,6.7,0,0,0,1.194-.568,12.38,12.38,0,0,0,1.194-.813q.6-.462,1.136-.933a23.41,23.41,0,0,0,2.5-2.552c.05-.087.167-.134.36-.142ZM59.837,62.641a1.483,1.483,0,0,0,.809-.491,14.336,14.336,0,0,0,1.092-1.159q.573-.672,1.109-1.371t.825-1.1l0,.024a23.581,23.581,0,0,1,1.66-2.538q.953-1.276,1.788-2.262a1.007,1.007,0,0,0-.613-.18,3.8,3.8,0,0,0-1.65.481,8.931,8.931,0,0,0-1.679,1.174,13.675,13.675,0,0,0-1.561,1.62,14.838,14.838,0,0,0-1.282,1.8,11.506,11.506,0,0,0-.869,1.74,3.923,3.923,0,0,0-.32,1.441C59.151,62.374,59.382,62.648,59.837,62.641Z"/><path class="cls-1" d="M94.473,56.667a.618.618,0,0,1,.436.109.191.191,0,0,1,.06.263,6.243,6.243,0,0,1-1.9,1.836,11.951,11.951,0,0,1-2.8,1.3,14.932,14.932,0,0,1-4.357.642l-.414.01a.33.33,0,0,1-.118-.01.306.306,0,0,0-.117-.013,14.787,14.787,0,0,1-3.582,2.4,9.379,9.379,0,0,1-4.006.948,7.6,7.6,0,0,1-2.655-.378,4.9,4.9,0,0,1-1.668-.956,3.7,3.7,0,0,1-1.2-2.435,4.062,4.062,0,0,1,.52-1.957,20.88,20.88,0,0,1,1.449-2.44q.88-1.3,1.99-2.672t2.148-2.643c.486-.617.955-1.2,1.405-1.752s.831-1.025,1.139-1.425.538-.712.691-.94.185-.338.1-.33a.312.312,0,0,1-.31-.12.337.337,0,0,1-.031-.331.819.819,0,0,1,.312-.362,1.5,1.5,0,0,1,.714-.215,3.707,3.707,0,0,1,.76.015,2.917,2.917,0,0,1,.781.2,1.921,1.921,0,0,1,.638.43,1.169,1.169,0,0,1,.316.724,3.561,3.561,0,0,1-.547,1.9,29.846,29.846,0,0,1-1.546,2.563,6.613,6.613,0,0,1,1.437-.253,7.884,7.884,0,0,1,2.151.113,5.266,5.266,0,0,1,1.622.586,3.121,3.121,0,0,1,1.032.927,2.478,2.478,0,0,1,.434,1.124,5.28,5.28,0,0,1-.57,2.741,12.912,12.912,0,0,1-1.954,3,10.976,10.976,0,0,0,2.7-.51,8.113,8.113,0,0,0,1.713-.79,4.129,4.129,0,0,0,1.191-1.042c.051-.113.173-.171.369-.181Zm-15.308-.819-.779-.092c-.019.12-.031.242-.038.363a3.408,3.408,0,0,0,.009.386l.031.413Zm5.6-3.391a2.2,2.2,0,0,0-1.191.424,3.824,3.824,0,0,0-.911.961,4.07,4.07,0,0,0-.569,1.294,4.033,4.033,0,0,0,.069,2.312,2.153,2.153,0,0,0,.5.832q.606-.741,1.122-1.507a12.473,12.473,0,0,0,.855-1.458,9.67,9.67,0,0,0,.532-1.282,2.5,2.5,0,0,0,.151-1.006C85.282,52.626,85.1,52.437,84.766,52.457Zm-8.2,10.1a4.348,4.348,0,0,0,2.17-.7,12.9,12.9,0,0,0,2.332-1.842,5.65,5.65,0,0,1-1.756-1.406,4.6,4.6,0,0,1-.929-1.687q-1.158,1.629-1.937,2.968a4.126,4.126,0,0,0-.728,2.076C75.75,62.367,76.03,62.565,76.571,62.556Z"/><path class="cls-1" d="M111.134,48.877a5.538,5.538,0,0,1,.769.006,2.972,2.972,0,0,1,.834.174,1.983,1.983,0,0,1,.73.479,1.826,1.826,0,0,1,.445.942,3.966,3.966,0,0,1-.526,1.629,34.626,34.626,0,0,1-1.722,3.14q-1.121,1.861-2.718,4.11t-3.471,4.548q-1.881,2.3-3.98,4.439a37.628,37.628,0,0,1-4.257,3.748,21.8,21.8,0,0,1-4.269,2.536,9.5,9.5,0,0,1-7.435.152,5.432,5.432,0,0,1-1.841-1.245,1.78,1.78,0,0,1-.546-1.179c.018-.345.211-.514.585-.5a1.393,1.393,0,0,1,.914.258,6.768,6.768,0,0,1,.522.54,3.115,3.115,0,0,0,.529.559,2.254,2.254,0,0,0,1.276.3,5.676,5.676,0,0,0,2.87-.8,19.418,19.418,0,0,0,3.267-2.287,37.025,37.025,0,0,0,3.441-3.372Q98.294,65.117,99.945,63a10.032,10.032,0,0,1-1.838.728,6.737,6.737,0,0,1-1.824.281,6.891,6.891,0,0,1-2.122-.289,5.986,5.986,0,0,1-1.642-.788,3.892,3.892,0,0,1-1.091-1.111,3.016,3.016,0,0,1-.467-1.288,3.365,3.365,0,0,1,.41-1.689A18.184,18.184,0,0,1,92.639,56.6c.525-.8,1.1-1.6,1.739-2.4s1.244-1.534,1.824-2.191a22.177,22.177,0,0,1,1.56-1.623,2.564,2.564,0,0,1,.894-.65,5.974,5.974,0,0,1,.768,0,2.63,2.63,0,0,1,.772.168,1.5,1.5,0,0,1,.613.46,1.885,1.885,0,0,1,.345.9,3.684,3.684,0,0,1-.748,2.139q-.857,1.412-1.967,3.021c-.372.546-.73,1.086-1.085,1.619s-.666,1.045-.941,1.529a9.571,9.571,0,0,0-.638,1.322,2.088,2.088,0,0,0-.177,1c.034.271.24.4.613.4a3.446,3.446,0,0,0,1.27-.31,9.915,9.915,0,0,0,1.47-.8,17.142,17.142,0,0,0,1.568-1.146c.538-.431,1.055-.87,1.558-1.312q1.791-1.578,3.7-3.611l0,.029c.148-.222.286-.432.417-.632s.272-.4.419-.6l.006.029q1.6-2.235,2.752-3.622T111.134,48.877Z"/><path class="cls-1" d="M149.63,54.473a1.267,1.267,0,0,1,.7.127c.165.1.206.208.14.326a26.207,26.207,0,0,1-4.264,4.391q-1.043.829-2.232,1.62a17.4,17.4,0,0,1-2.573,1.4,17.149,17.149,0,0,1-2.925.988,13.765,13.765,0,0,1-3.165.387,10.923,10.923,0,0,1-2.9-.334,9.807,9.807,0,0,1-2.3-.916,5.765,5.765,0,0,1-1.617-1.3,3.624,3.624,0,0,1-.776-1.479,2.412,2.412,0,0,1,.09-1.16,8.59,8.59,0,0,1,.6-1.508q.4-.807.945-1.7c.364-.594.749-1.168,1.145-1.721q-1.656,1.389-3.146,2.858T124.5,59.269q-.888.923-1.757,1.746t-1.587,1.442a10.393,10.393,0,0,1-1.325,1,2.13,2.13,0,0,1-1.041.378,5.685,5.685,0,0,1-1.935-.319,7.234,7.234,0,0,1-1.739-.868,5.507,5.507,0,0,1-1.309-1.233,3.418,3.418,0,0,1-.645-1.4,3.315,3.315,0,0,1,.384-1.854,17.213,17.213,0,0,1,1.387-2.445q.873-1.3,1.944-2.639t2.06-2.412a24.411,24.411,0,0,1,1.784-1.771,2.872,2.872,0,0,1,1.044-.719,7.326,7.326,0,0,1,.928,0,3.457,3.457,0,0,1,.949.178,1.95,1.95,0,0,1,.778.5,2,2,0,0,1,.472.953,2.1,2.1,0,0,1-.113,1.15,7.284,7.284,0,0,1-.691,1.419c-.307.505-.651,1.034-1.03,1.594s-.778,1.126-1.193,1.706c-.551.734-1.061,1.45-1.531,2.158a11.445,11.445,0,0,0-1.076,1.953q.86-.909,2.089-2.159T124.082,55q1.506-1.37,3.16-2.729a39.764,39.764,0,0,1,3.34-2.472,22.666,22.666,0,0,1,3.329-1.84,9.241,9.241,0,0,1,3.081-.83,7.793,7.793,0,0,1,.945,0,4.229,4.229,0,0,1,1.04.187,2.336,2.336,0,0,1,.9.523,2.173,2.173,0,0,1,.569,1,1.8,1.8,0,0,1-.129,1.056,9.513,9.513,0,0,1-.721,1.5c-.322.555-.669,1.138-1.046,1.752s-.767,1.2-1.179,1.773c-.447.613-.881,1.234-1.3,1.86A18.109,18.109,0,0,0,135,58.569a8.476,8.476,0,0,0-.647,1.542,2.207,2.207,0,0,0-.1,1.13c.081.314.33.466.744.461a7.1,7.1,0,0,0,1.925-.32,12.765,12.765,0,0,0,2-.788,18.307,18.307,0,0,0,1.942-1.1q.956-.626,1.807-1.266a32.366,32.366,0,0,0,3.911-3.464c.068-.116.276-.182.623-.2Z"/><path class="cls-1" d="M187.685,52.958a1.616,1.616,0,0,1,.812.145c.222.111.288.232.213.367a28.422,28.422,0,0,1-5.088,4.986q-1.271.94-2.728,1.84a20.943,20.943,0,0,1-3.167,1.586A22.794,22.794,0,0,1,174.112,63a18.753,18.753,0,0,1-3.97.441,15.864,15.864,0,0,1-5.192-.719,10.143,10.143,0,0,1-3.478-1.908,15.152,15.152,0,0,1-3.246,1.918,10.361,10.361,0,0,1-4.175.831,13.536,13.536,0,0,1-5.822-1.031,4.984,4.984,0,0,1-2.85-3.2,4.823,4.823,0,0,1,.091-2.9,10.046,10.046,0,0,1,1.627-3,17.951,17.951,0,0,1,2.817-2.872,24.419,24.419,0,0,1,3.643-2.483,23.45,23.45,0,0,1,4.146-1.814,17.831,17.831,0,0,1,4.311-.864,19.57,19.57,0,0,1,3.7.047,13.461,13.461,0,0,1,2.788.616,9.175,9.175,0,0,1,1.282-.893,2.6,2.6,0,0,1,.962-.372,12.4,12.4,0,0,1,1.288-.015,6.112,6.112,0,0,1,1.339.2,3.849,3.849,0,0,1,1.231.574,2.458,2.458,0,0,1,.865,1.117,1.681,1.681,0,0,1-.117,1.19,16.3,16.3,0,0,1-.786,1.694q-.5.938-1.179,1.976t-1.394,2q-.774,1.039-1.489,2.1a21.466,21.466,0,0,0-1.212,1.993,10.28,10.28,0,0,0-.74,1.719,2,2,0,0,0-.065,1.273c.13.351.486.526,1.076.517A10.411,10.411,0,0,0,172,60.8a15.148,15.148,0,0,0,2.5-.876,22.529,22.529,0,0,0,2.391-1.25c.776-.471,1.506-.949,2.2-1.436A31.461,31.461,0,0,0,183.7,53.31c.074-.132.335-.208.781-.225ZM154.4,61.118a2.862,2.862,0,0,0,1.581-.737,18,18,0,0,0,1.923-1.734c.655-.669,1.281-1.355,1.872-2.05s1.044-1.244,1.355-1.64l.011.033a24.235,24.235,0,0,1,2.579-3.8c1.046-1.275,2.045-2.411,3-3.4a3.674,3.674,0,0,0-1.463-.235,10.17,10.17,0,0,0-3.487.776,15.668,15.668,0,0,0-3.222,1.785,18.177,18.177,0,0,0-2.755,2.426,15.97,15.97,0,0,0-2.043,2.676,10.793,10.793,0,0,0-1.162,2.573,3.655,3.655,0,0,0-.082,2.126A1.715,1.715,0,0,0,154.4,61.118Z"/></svg>